# Blender v2.78 (sub 4) OBJ File: 'SpaceShip.blend'
# www.blender.org
o Ramp-02_Cube.012
v -0.500000 -0.500000 0.500000
v -0.500000 0.500000 0.500000
v -0.500000 -0.500000 -0.500000
v -0.500000 0.000000 -0.500000
v 0.500000 -0.500000 0.500000
v 0.500000 0.500000 0.500000
v 0.500000 -0.500000 -0.500000
v 0.500000 0.000000 -0.500000
vt 1.000000 1.000000
vt 0.000000 1.000000
vt 0.000000 0.000000
vt 1.000000 0.000000
vt 0.999900 0.999900
vt 0.000100 0.999900
vt 0.500000 0.000100
vt 0.999900 0.000100
vt 0.000071 0.500000
vt 0.000071 0.000071
vt 0.999929 0.000071
vt 0.999929 0.500000
vt 0.999900 0.000100
vt 0.999900 0.500000
vt 0.000100 0.999900
vt 0.000100 0.000100
vt 0.999900 0.000100
vt 0.999900 0.999900
vt 0.000100 0.000100
vt 0.000100 0.000100
vt 0.999900 0.999900
vt 0.000100 0.999900
vn 0.0000 0.8944 -0.4472
vn -1.0000 0.0000 0.0000
vn 0.0000 0.0000 -1.0000
vn 1.0000 0.0000 0.0000
vn 0.0000 0.0000 1.0000
vn 0.0000 -1.0000 0.0000
g Ramp-02_Cube.012_1
s off
f 8/1/1 4/2/1 2/3/1 6/4/1
g Ramp-02_Cube.012_2
f 1/5/2 2/6/2 4/7/2 3/8/2
f 3/9/3 4/10/3 8/11/3 7/12/3
f 7/13/4 8/14/4 6/15/4 5/16/4
f 5/17/5 6/18/5 2/6/5 1/19/5
f 3/20/6 7/13/6 5/21/6 1/22/6
