# Blender v2.77 (sub 1) OBJ File: 'SpaceShip.blend'
# www.blender.org
o Edge_Corner_Inside_Cube.006
v 0.500000 0.200000 0.500000
v 0.500000 0.500000 0.500000
v -0.500000 0.200000 0.500000
v -0.500000 0.500000 0.500000
v 0.500000 0.400000 -0.500000
v 0.500000 0.500000 -0.500000
v -0.500000 0.200000 -0.500000
v -0.500000 0.500000 -0.500000
vt -0.0000 0.0000
vt 0.0000 1.0000
vt 1.0000 1.0000
vt 1.0000 -0.0000
vt 0.0000 1.0000
vt -0.0000 0.0000
vt 1.0000 -0.0000
vt 1.0000 1.0000
vt 0.0000 0.4403
vt 0.0000 0.7408
vt 1.0000 0.7408
vt 1.0000 0.4403
vt 0.0078 0.2390
vt 0.0078 0.5366
vt 1.0000 0.5366
vt 1.0000 0.2390
vt 1.0000 0.0000
vt 1.0000 0.3005
vt 0.0000 0.3005
vt 0.0000 0.2004
vt 0.9941 0.8784
vt 0.9941 0.9776
vt 0.0019 0.9776
vt 0.0019 0.6799
vn 0.0990 -0.9901 -0.0990
vn 0.0000 1.0000 -0.0000
vn -0.0000 0.0000 1.0000
vn -1.0000 0.0000 -0.0000
vn 0.0000 0.0000 -1.0000
vn 1.0000 0.0000 0.0000
g Edge_Corner_Inside_Cube.006_1
s off
f 3/1/1 7/2/1 5/3/1 1/4/1
f 8/5/2 4/6/2 2/7/2 6/8/2
g Edge_Corner_Inside_Cube.006_2
f 1/9/3 2/10/3 4/11/3 3/12/3
f 3/13/4 4/14/4 8/15/4 7/16/4
f 7/17/5 8/18/5 6/19/5 5/20/5
f 5/21/6 6/22/6 2/23/6 1/24/6
