# Blender v2.77 (sub 1) OBJ File: 'SpaceShip.blend'
# www.blender.org
o Floor_Angle_Cube.030
v -0.500000 0.400000 0.500000
v -0.500000 0.500000 0.500000
v -0.500000 0.400000 -0.500000
v -0.500000 0.500000 -0.500000
v 0.500000 0.400000 -0.500000
v 0.500000 0.500000 -0.500000
vt 0.0000 1.0000
vt 1.0000 1.0000
vt 0.0000 0.0000
vt 0.0000 1.0000
vt 0.0000 0.0000
vt 1.0000 1.0000
vt 0.0065 0.2843
vt 0.0065 0.3836
vt 1.0000 0.3836
vt 1.0000 0.2843
vt 0.0000 0.7205
vt 0.0000 0.8214
vt 1.0000 0.8214
vt 1.0000 0.7205
vt 0.0095 0.5266
vt 1.0000 0.5266
vt 1.0000 0.6256
vt 0.0095 0.6256
vn 0.0000 -1.0000 0.0000
vn 0.0000 1.0000 0.0000
vn -1.0000 0.0000 0.0000
vn 0.0000 0.0000 -1.0000
vn 0.7071 0.0000 0.7071
g Floor_Angle_Cube.030_1
s off
f 3/1/1 5/2/1 1/3/1
f 4/4/2 2/5/2 6/6/2
g Floor_Angle_Cube.030_2
f 1/7/3 2/8/3 4/9/3 3/10/3
f 3/11/4 4/12/4 6/13/4 5/14/4
f 1/15/5 5/16/5 6/17/5 2/18/5
