# Blender v2.77 (sub 1) OBJ File: 'SpaceShip.blend'
# www.blender.org
o Ramp-02_Cube.012
v -0.500000 -0.500000 0.500000
v -0.500000 0.500000 0.500000
v -0.500000 -0.500000 -0.500000
v -0.500000 0.000000 -0.500000
v 0.500000 -0.500000 0.500000
v 0.500000 0.500000 0.500000
v 0.500000 -0.500000 -0.500000
v 0.500000 0.000000 -0.500000
vt 0.9999 0.9999
vt 0.0001 0.9999
vt 0.5000 0.0001
vt 0.9999 0.0001
vt 0.0001 0.5000
vt 0.0001 0.0001
vt 0.9999 0.0001
vt 0.9999 0.5000
vt 0.9999 0.0001
vt 0.9999 0.5000
vt 0.0001 0.9999
vt 0.0001 0.0001
vt 0.9999 0.0001
vt 0.9999 0.9999
vt 0.0001 0.0001
vt 0.0001 0.0001
vt 0.9999 0.9999
vt 0.0001 0.9999
vt 1.0000 1.0000
vt 0.0000 1.0000
vt 0.0000 0.0000
vt 1.0000 0.0000
vn -1.0000 0.0000 0.0000
vn 0.0000 0.0000 -1.0000
vn 1.0000 0.0000 0.0000
vn 0.0000 0.0000 1.0000
vn 0.0000 -1.0000 0.0000
vn 0.0000 0.8944 -0.4472
s off
f 1/1/1 2/2/1 4/3/1 3/4/1
f 3/5/2 4/6/2 8/7/2 7/8/2
f 7/9/3 8/10/3 6/11/3 5/12/3
f 5/13/4 6/14/4 2/2/4 1/15/4
f 3/16/5 7/9/5 5/17/5 1/18/5
f 8/19/6 4/20/6 2/21/6 6/22/6
