# Blender v2.77 (sub 1) OBJ File: 'SpaceShip.blend'
# www.blender.org
o WindowCorner_TR_Cube.004
v -0.500000 -0.500000 -0.000000
v -0.500000 -0.500000 0.500000
v 0.500000 0.500000 -0.000000
v -0.500000 -0.500000 -0.500000
v 0.500000 0.500000 0.500000
v -0.500000 0.500000 0.500000
v 0.500000 0.500000 -0.500000
v -0.500000 0.500000 -0.500000
v 0.500000 -0.500000 -0.000000
vt 0.0000 0.0069
vt 0.9952 1.0000
vt 0.0000 1.0000
vt 0.0000 0.0000
vt 1.0000 0.0000
vt 1.0000 1.0000
vt 0.0000 1.0000
vt 0.0000 0.0000
vt 1.0000 0.0000
vt 1.0000 1.0000
vt 0.0000 1.0000
vt 0.0010 1.0000
vt 1.0000 0.0048
vt 1.0000 1.0000
vt 0.0000 0.0000
vt 1.0000 0.0000
vt 1.0000 1.0000
vt 0.0001 0.9999
vt 0.0001 0.0001
vt 0.9999 0.0001
vn -0.0000 -0.0000 1.0000
vn 0.7071 -0.7071 0.0000
vn 0.0000 1.0000 0.0000
vn 0.0000 0.0000 -1.0000
vn -1.0000 0.0000 -0.0000
s off
f 2/1/1 5/2/1 6/3/1
f 4/4/2 7/5/2 5/6/2 2/7/2
f 7/8/3 8/9/3 6/10/3 5/11/3
f 7/12/4 4/13/4 8/14/4
f 8/15/5 4/16/5 2/17/5 6/3/5
f 3/18/4 9/19/4 1/20/4
