# Blender v2.78 (sub 4) OBJ File: 'SpaceShip.blend'
# www.blender.org
o Cube_Cube.013
v 0.100000 -0.400000 0.400000
v 0.100000 -0.500000 0.400000
v 0.100000 -0.400000 -0.400000
v 0.100000 -0.500000 -0.400000
v -0.100000 -0.400000 0.400000
v -0.100000 -0.500000 0.400000
v -0.100000 -0.400000 -0.400000
v -0.100000 -0.500000 -0.400000
vt 0.093750 0.093750
vt 0.093750 0.000000
vt 0.906250 0.000000
vt 0.906250 0.093750
vt 1.000000 0.093750
vt 1.000000 0.312500
vt 0.906250 0.312500
vt 0.906250 0.406250
vt 0.093750 0.406250
vt 0.093750 0.312500
vt 0.000000 0.312500
vt 0.000000 0.093750
vn 1.0000 0.0000 0.0000
vn 0.0000 0.0000 -1.0000
vn -1.0000 -0.0000 -0.0000
vn 0.0000 0.0000 1.0000
vn -0.0000 1.0000 0.0000
g Cube_Cube.013_None
s off
f 1/1/1 2/2/1 4/3/1 3/4/1
f 3/4/2 4/5/2 8/6/2 7/7/2
f 7/7/3 8/8/3 6/9/3 5/10/3
f 5/10/4 6/11/4 2/12/4 1/1/4
f 3/4/5 7/7/5 5/10/5 1/1/5
