# Blender v2.77 (sub 1) OBJ File: 'SpaceShip.blend'
# www.blender.org
o Stairs_Cube.009
v -0.500000 -0.500000 0.500000
v -0.500000 0.500000 0.500000
v -0.500000 -0.500000 -0.400000
v 0.500000 -0.500000 0.500000
v 0.500000 0.500000 0.500000
v 0.500000 -0.500000 -0.400000
v -0.500000 -0.500000 0.000000
v -0.500000 0.500000 0.000000
v 0.500000 -0.500000 0.000000
v 0.500000 0.500000 0.000000
v -0.500000 0.000000 0.500000
v -0.500000 0.000000 -0.500000
v 0.500000 0.000000 -0.500000
v 0.500000 0.000000 0.500000
v 0.500000 0.000000 0.100000
v -0.500000 0.000000 0.100000
vt 0.4000 0.5000
vt 0.5000 0.9999
vt 0.0001 0.9999
vt 0.0001 0.5000
vt 0.9999 0.5000
vt 0.9999 0.9999
vt 0.0001 0.9999
vt 0.0001 0.5000
vt 0.0001 0.4000
vt 0.9999 0.4000
vt 0.9999 0.8999
vt 0.0001 0.8999
vt 0.0001 0.0001
vt 0.9999 0.0001
vt 0.5000 0.9999
vt 0.0001 0.5000
vt 0.5000 0.6000
vt 0.9999 0.9999
vt 0.9999 0.5000
vt 0.8999 0.0001
vt 0.9999 0.5000
vt 0.5000 0.0001
vt 0.9999 0.0001
vt 0.0001 0.0001
vt 0.0001 0.0001
vt 0.5000 0.0001
vt 0.9999 0.1001
vt 0.0001 0.0001
vt 0.9999 0.0001
vt 0.9999 0.5099
vt 0.0001 0.5099
vt 0.9999 0.5000
vt 0.0001 0.0001
vt 0.9999 0.0001
vt 0.9999 0.4001
vt 0.9999 1.0000
vt 0.0001 1.0000
vt 0.0001 0.4001
vt 0.0001 0.5099
vt 0.0001 0.0001
vt 0.9999 0.0001
vt 0.9999 0.5099
vn 1.0000 0.0000 0.0000
vn 0.0000 0.0000 1.0000
vn 0.0000 -1.0000 0.0000
vn -1.0000 0.0000 0.0000
vn 0.0000 -0.1961 -0.9806
vn 0.0000 1.0000 0.0000
s off
f 15/1/1 10/2/1 5/3/1 14/4/1
f 14/5/2 5/6/2 2/7/2 11/8/2
f 7/9/3 9/10/3 4/11/3 1/12/3
f 3/13/3 6/14/3 9/10/3 7/9/3
f 11/15/4 2/7/4 8/16/4 16/17/4
f 1/18/4 11/15/4 16/17/4 7/19/4
f 6/20/1 13/21/1 15/1/1 9/22/1
f 4/23/2 14/5/2 11/8/2 1/24/2
f 9/22/1 15/1/1 14/4/1 4/25/1
f 7/19/4 16/17/4 12/26/4 3/27/4
f 8/28/5 10/29/5 15/30/5 16/31/5
f 10/32/6 8/16/6 2/33/6 5/34/6
f 15/35/6 13/36/6 12/37/6 16/38/6
f 3/39/5 12/40/5 13/41/5 6/42/5
