# Blender v2.77 (sub 1) OBJ File: 'SpaceShip.blend'
# www.blender.org
o Fence_Angle_Cube.018
v -0.494975 0.200000 0.268701
v -0.494975 0.300000 0.268701
v 0.268701 0.200000 -0.494975
v 0.268701 0.300000 -0.494975
v -0.388909 0.200000 0.374767
v -0.388909 0.300000 0.374767
v 0.374767 0.200000 -0.388909
v 0.374767 0.300000 -0.388909
v -0.494975 -0.500000 0.268701
v -0.494975 -0.400000 0.268701
v 0.268701 -0.500000 -0.494975
v 0.268701 -0.400000 -0.494975
v -0.388909 -0.500000 0.374767
v -0.388909 -0.400000 0.374767
v 0.374767 -0.500000 -0.388909
v 0.374767 -0.400000 -0.388909
v -0.268701 0.210000 0.226274
v -0.339411 0.210000 0.155564
v -0.197990 0.210000 0.155564
v -0.268701 0.210000 0.084853
v -0.268701 -0.410000 0.226274
v -0.339411 -0.410000 0.155564
v -0.197990 -0.410000 0.155564
v -0.268701 -0.410000 0.084853
v 0.155563 0.210000 -0.197990
v 0.084853 0.210000 -0.268701
v 0.226274 0.210000 -0.268701
v 0.155563 0.210000 -0.339411
v 0.155563 -0.410000 -0.197990
v 0.084853 -0.410000 -0.268701
v 0.226274 -0.410000 -0.268701
v 0.155563 -0.410000 -0.339411
v -0.056569 0.210000 0.014142
v -0.127279 0.210000 -0.056569
v 0.014142 0.210000 -0.056569
v -0.056569 0.210000 -0.127279
v -0.056569 -0.410000 0.014142
v -0.127279 -0.410000 -0.056569
v 0.014142 -0.410000 -0.056569
v -0.056569 -0.410000 -0.127279
vt 0.5188 0.0784
vt 0.5969 0.0784
vt 0.5969 0.9219
vt 0.5188 0.9219
vt 0.5188 1.0000
vt 0.4017 1.0000
vt 0.4017 0.9219
vt 0.7922 0.9219
vt 0.7141 0.9219
vt 0.7141 0.0784
vt 0.7922 0.0784
vt 0.4017 0.0784
vt 0.4017 0.0003
vt 0.5188 0.0003
vt 0.5187 0.0782
vt 0.5968 0.0782
vt 0.5968 0.9218
vt 0.5187 0.9218
vt 0.5187 0.9999
vt 0.4016 0.9999
vt 0.4016 0.9218
vt 0.7921 0.9218
vt 0.7140 0.9218
vt 0.7140 0.0782
vt 0.7921 0.0782
vt 0.4016 0.0782
vt 0.4016 0.0001
vt 0.5187 0.0001
vt 0.0000 0.1563
vt 0.0000 0.0000
vt 1.0000 -0.0000
vt 1.0000 0.1562
vt 0.0000 0.3125
vt 1.0000 0.3125
vt 0.0000 0.4688
vt 1.0000 0.4687
vt 0.0002 0.6250
vt 1.0000 0.6250
vt 0.0000 0.1563
vt 0.0000 0.0000
vt 1.0000 -0.0000
vt 1.0000 0.1562
vt 0.0000 0.3125
vt 1.0000 0.3125
vt 0.0000 0.4688
vt 1.0000 0.4687
vt 0.0000 0.6250
vt 0.9998 0.6250
vt 0.0000 0.1563
vt 0.0000 0.0000
vt 1.0000 -0.0000
vt 1.0000 0.1562
vt 0.0000 0.3125
vt 1.0000 0.3125
vt 0.0000 0.4688
vt 1.0000 0.4687
vt 0.0002 0.6250
vt 1.0000 0.6250
vn -0.7071 0.0000 -0.7071
vn 0.7071 0.0000 -0.7071
vn 0.7071 0.0000 0.7071
vn -0.7071 0.0000 0.7071
vn 0.0000 -1.0000 0.0000
vn 0.0000 1.0000 0.0000
s off
f 1/1/1 2/2/1 4/3/1 3/4/1
f 3/4/2 4/5/2 8/6/2 7/7/2
f 7/8/3 8/9/3 6/10/3 5/11/3
f 5/12/4 6/13/4 2/14/4 1/1/4
f 3/4/5 7/7/5 5/12/5 1/1/5
f 8/9/6 4/3/6 2/2/6 6/10/6
f 9/15/1 10/16/1 12/17/1 11/18/1
f 11/18/2 12/19/2 16/20/2 15/21/2
f 15/22/3 16/23/3 14/24/3 13/25/3
f 13/26/4 14/27/4 10/28/4 9/15/4
f 11/18/5 15/21/5 13/26/5 9/15/5
f 16/23/6 12/17/6 10/16/6 14/24/6
f 19/29/3 17/30/3 21/31/3 23/32/3
f 20/33/2 19/29/2 23/32/2 24/34/2
f 18/35/1 20/33/1 24/34/1 22/36/1
f 17/37/4 18/35/4 22/36/4 21/38/4
f 27/39/3 25/40/3 29/41/3 31/42/3
f 28/43/2 27/39/2 31/42/2 32/44/2
f 26/45/1 28/43/1 32/44/1 30/46/1
f 25/47/4 26/45/4 30/46/4 29/48/4
f 35/49/3 33/50/3 37/51/3 39/52/3
f 36/53/2 35/49/2 39/52/2 40/54/2
f 34/55/1 36/53/1 40/54/1 38/56/1
f 33/57/4 34/55/4 38/56/4 37/58/4
