# Blender v2.78 (sub 5) OBJ File: 'SpaceShip.blend'
# www.blender.org
o WindowPanel_Cube.008
v -0.500000 -0.500000 0.050000
v -0.500000 0.500000 0.050000
v -0.500000 -0.500000 -0.050000
v -0.500000 0.500000 -0.050000
v 0.500000 -0.500000 0.050000
v 0.500000 0.500000 0.050000
v 0.500000 -0.500000 -0.050000
v 0.500000 0.500000 -0.050000
vt 0.100026 0.000032
vt 0.100025 0.999968
vt 0.000032 0.999968
vt 0.000032 0.000032
vt 0.000100 0.999900
vt 0.000100 0.000100
vt 0.999900 0.000100
vt 0.999900 0.999900
vt 0.100026 0.000032
vt 0.100025 0.999968
vt 0.000032 0.999968
vt 0.000032 0.000032
vt 0.999900 0.000100
vt 0.999900 0.999900
vt 0.000100 0.999900
vt 0.000100 0.000100
vt 0.999968 0.000032
vt 0.999968 0.100026
vt 0.000032 0.100026
vt 0.999968 0.100026
vt 0.000032 0.100026
vt 0.000032 0.000032
vt 0.999968 0.000032
vn -1.0000 0.0000 0.0000
vn 0.0000 0.0000 -1.0000
vn 1.0000 0.0000 0.0000
vn 0.0000 0.0000 1.0000
vn 0.0000 -1.0000 0.0000
vn 0.0000 1.0000 0.0000
g WindowPanel_Cube.008_2
s off
f 1/1/1 2/2/1 4/3/1 3/4/1
f 3/5/2 4/6/2 8/7/2 7/8/2
f 7/9/3 8/10/3 6/11/3 5/12/3
f 5/13/4 6/14/4 2/15/4 1/16/4
f 3/4/5 7/17/5 5/18/5 1/19/5
f 8/20/6 4/21/6 2/22/6 6/23/6
